<svg width="132" height="31" viewBox="0 0 132 31" fill="none" xmlns="http://www.w3.org/2000/svg">
<path d="M22.1238 23.8634C21.9405 24.0544 21.3279 24.4504 21.2587 24.6914C20.9331 32.8976 9.67273 32.6849 9.43051 24.5094L6.25334 21.3335C3.90027 21.2079 1.76379 20.23 0.641081 18.0845C-1.0904 14.7728 0.849987 10.5562 4.48726 9.75138C5.0845 9.61937 5.79196 9.71293 6.22899 9.38739C6.54556 9.15285 9.38565 6.34608 9.47536 6.13461C9.61763 5.80011 9.6266 4.90553 9.73041 4.46849C10.6711 0.524913 15.6016 -1.39369 18.8518 1.15548C20.5538 2.49094 21.1267 4.17115 21.3253 6.27944L24.5922 9.51171C24.919 9.70524 25.3112 9.57066 25.6675 9.62577C32.4012 10.6729 32.5511 20.0967 25.4855 21.231C25.21 21.2758 24.8767 21.1746 24.6268 21.2873C24.2808 21.445 22.5301 23.4354 22.1212 23.8621L22.1238 23.8634ZM9.97776 7.88019C9.84319 7.84303 9.76373 7.89301 9.65736 7.9635C9.51509 8.05578 8.0566 9.51556 7.96432 9.65654C7.89383 9.7642 7.84385 9.84238 7.88102 9.97695C12.1527 11.6405 13.0037 17.4143 9.187 20.1249C8.86018 20.3569 8.17579 20.6465 7.97073 20.8311C7.86692 20.9234 7.84641 20.9221 7.91946 21.0592C7.97714 21.1681 9.52663 22.7151 9.65736 22.8009C9.76501 22.8714 9.84319 22.9214 9.97776 22.8843C11.872 18.3409 17.7111 17.841 20.4 22.0371C20.5179 22.2204 20.8075 23.0368 21.0126 22.9804L22.9812 20.9221C22.9633 20.8426 22.0328 20.4197 21.8546 20.3082C18.4993 18.1896 18.2135 13.4271 21.2907 10.8997C21.7765 10.5011 22.2545 10.3076 22.7736 10.0013C22.8492 9.95643 22.9261 10.0282 22.8889 9.84494L20.9216 7.87764C20.4871 8.46719 20.227 9.15285 19.7323 9.7078C16.8601 12.9337 11.4286 11.9404 9.97776 7.88019Z" fill="white"/>
<path d="M128.159 24.4441V17.0747C128.159 17.0491 128.021 16.6377 127.998 16.5954C127.793 16.2314 127.172 16.2045 126.787 16.2045V24.3057L126.649 24.4428H123.125V6.4551L123.262 6.31796H129.029C129.482 6.31796 130.41 6.66272 130.769 6.95878C132.182 8.12763 132.405 12.8991 131.309 14.273C131.031 14.6217 130.666 14.7062 130.448 15.0587C130.787 15.2522 131.135 15.4624 131.348 15.8072C131.463 15.9943 131.729 16.8017 131.729 16.9824V24.3057L131.591 24.4428H128.159V24.4441ZM126.785 13.0017C127.169 13.0209 127.855 13.1132 128.12 12.8248C128.537 12.3685 128.577 10.2128 128.066 9.84501C127.789 9.64636 127.04 9.60791 126.787 9.84245V13.0004L126.785 13.0017Z" fill="white"/>
<path d="M99.9182 24.4443C99.8246 24.3866 99.8003 24.3187 99.7823 24.2149C99.7131 23.8342 99.6196 21.6068 99.494 21.5286C99.1287 21.5606 97.6202 21.4017 97.4459 21.6068C97.1486 21.9554 97.3344 23.9111 97.1268 24.4456H93.6484C94.1713 18.7538 94.675 13.0557 95.2953 7.37296C95.3556 6.81801 95.0582 6.38867 95.7939 6.31561C96.9615 6.20027 100.069 6.17464 101.205 6.31561C101.305 6.32843 101.41 6.30792 101.479 6.40789L103.124 24.4443H99.9195H99.9182ZM97.6753 18.6782H99.0941L99.2171 18.527L98.4533 9.61582L98.2264 10.3041L97.6766 18.6782H97.6753Z" fill="white"/>
<path d="M117.724 13.3683H121.111L121.193 16.6108L121.067 16.7556H117.863L117.725 16.8928V20.8287C117.873 21.0555 118.084 20.8748 118.316 20.8697C118.77 20.8594 121.258 20.812 121.441 20.9568C121.583 21.0683 121.56 21.217 121.574 21.3721C121.664 22.3038 121.566 23.515 121.477 24.4441H114.062V6.45646L114.2 6.31932H121.156L121.293 6.45646V9.75153L121.156 9.88867H117.861L117.724 10.0258V13.367V13.3683Z" fill="white"/>
<path d="M107.059 6.31932L108.202 11.9944L109.256 6.31932H112.551C112.597 6.31932 112.701 6.47056 112.691 6.54745L109.851 18.4487V24.4441H106.463L106.452 18.7345L103.576 6.6C103.535 6.50516 103.739 6.31932 103.763 6.31932H107.058H107.059Z" fill="white"/>
<path d="M88.9819 21.3324H92.6435C92.6141 21.4221 92.7345 21.5311 92.7345 21.5618V24.3084L92.5974 24.4455H85.4574L85.3203 24.3084V6.45781L85.4574 6.32068H88.8448L88.9819 6.45781V21.3324Z" fill="white"/>
<path d="M76.1423 24.5126L76 24.1973L76.0859 6.44161L76.9484 6.40573L77.2406 6.75433L81.4521 19.9346L81.4021 6.5403C81.4457 6.35062 82.535 6.29422 82.6965 6.51595L82.767 24.3614C82.6824 24.6203 81.8276 24.5165 81.5879 24.4678L77.5162 11.331L77.47 24.5126H76.1423Z" fill="white"/>
<path d="M54.0564 6.31932C56.5517 6.53848 57.09 8.36737 57.2182 10.5718C57.3835 13.4042 57.3989 17.458 57.2182 20.2827C57.1233 21.7617 56.776 23.565 55.2624 24.1853C55.1086 24.2481 54.5396 24.4441 54.4229 24.4441H51.0356L50.8984 24.307V6.45646L51.0356 6.31932H54.0564ZM52.5915 7.60095L52.4543 7.73809V23.0254L52.5915 23.1625H53.9641C54 23.1625 54.5677 22.96 54.6408 22.9241C55.4316 22.5448 55.6123 20.9876 55.661 20.1917C55.8314 17.3926 55.8327 13.3696 55.661 10.5718C55.611 9.75922 55.4226 8.35455 54.6805 7.8906C54.5665 7.81883 54.0551 7.60095 53.9628 7.60095H52.5902H52.5915Z" fill="white"/>
<path d="M60.0043 6.31932H63.0251C63.3186 6.31932 64.2581 6.57436 64.54 6.72688C65.8434 7.43306 66.1113 9.4183 66.1869 10.755C66.3433 13.5195 66.3484 17.3375 66.1869 20.0994C66.0869 21.8155 65.5269 24.4441 63.2994 24.4441H60.0043L59.8672 24.307V6.45646L60.0043 6.31932ZM61.5602 7.60095L61.4231 7.73809V23.0254L61.5602 23.1625H62.9328C62.9713 23.1625 63.5737 22.9203 63.6518 22.8741C64.4362 22.4115 64.5836 20.8389 64.6297 20.0084C64.7835 17.2568 64.7989 13.408 64.6297 10.6628C64.581 9.86047 64.3772 8.34558 63.6493 7.8906C63.5352 7.81883 63.0238 7.60095 62.9316 7.60095H61.5589H61.5602Z" fill="white"/>
<path d="M41.8405 14.1924V6.4116C42.2955 6.31804 42.9965 6.18603 43.3964 6.45774V24.4454H41.9776L41.8405 24.3083V15.383H38.6825L38.5454 15.5202V24.4454H37.0805L36.9844 23.9469L37.0715 6.45005C37.2253 6.25396 38.3339 6.23602 38.5454 6.45902V14.0565L38.6825 14.1937H41.8405V14.1924Z" fill="white"/>
<path d="M70.3996 7.60095V14.5576C71.3147 14.7102 72.3567 14.6973 73.2756 14.5679C73.5448 14.6307 73.3743 15.6009 73.4204 15.8393H70.5368L70.3996 15.9764V23.1164L70.5368 23.2535H73.6037C73.5512 23.6329 73.7409 24.1519 73.4666 24.4441H68.8438V6.45646L68.9809 6.31932H73.4666C73.6896 6.6 73.687 7.33053 73.4666 7.60095H70.3996Z" fill="white"/>
<path d="M46.4141 24.5361V6.54841L46.5512 6.41127H47.9238L48.061 6.54841V24.399L47.9238 24.5361H46.4141Z" fill="white"/>
<circle cx="15.3841" cy="5.89576" r="4.48571" fill="#37C980"/>
<circle cx="24.9935" cy="15.5079" r="4.48571" fill="#37C980"/>
<circle cx="5.76696" cy="15.5079" r="4.48571" fill="#37C980"/>
<circle cx="15.3841" cy="24.992" r="4.48571" fill="#37C980"/>
</svg>
